<?xml version="1.0" encoding="utf-8"?>
<!-- Generator: Adobe Illustrator 25.4.1, SVG Export Plug-In . SVG Version: 6.00 Build 0)  -->
<svg version="1.1" xmlns="http://www.w3.org/2000/svg" xmlns:xlink="http://www.w3.org/1999/xlink" x="0px" y="0px"
	 viewBox="0 0 1725 783.5" style="enable-background:new 0 0 1725 783.5;" xml:space="preserve">
<style type="text/css">
	.st0{display:none;}
	.st1{display:inline;fill:#FFFFFF;}
	.st2{fill:#00005F;}
	.st3{display:inline;}
	.st4{fill:#FF4600;}
	.st5{fill:#00BEBE;}
	.st6{fill:#D264EB;}
</style>
<g id="Background" class="st0">
	<rect x="-16.3" y="-10.5" class="st1" width="2297.5" height="1101"/>
</g>
<g id="Contenu">
	<g>
		<g>
			<g>
				<path class="st2" d="M311.3,393.6v-6.3c0-31.5,17.5-76.5,93.4-76.5h9.6c73.4,0,91.5,34.8,91.5,62.7v1h-51.3
					c-0.6-4-5.2-24.8-45-24.8c-36.7,0-46.3,21-46.3,39v2.7c0,16.9,9.8,40,46.5,40c39.8,0,44.2-21,44.8-25.2h51.3v1.3
					c0,26.3-17.7,63.4-91.5,63.4h-9.6C329,470.9,311.3,424.6,311.3,393.6z"/>
				<path class="st2" d="M528.3,393.6v-6.3c0-31.5,17.5-76.5,93.4-76.5h9.6c73.4,0,91.5,34.8,91.5,62.7v1h-51.3
					c-0.6-4-5.2-24.8-45-24.8c-36.7,0-46.3,21-46.3,39v2.7c0,16.9,9.8,40,46.5,40c39.8,0,44.2-21,44.8-25.2h51.3v1.3
					c0,26.3-17.7,63.4-91.5,63.4h-9.6C546,470.9,528.3,424.6,528.3,393.6z"/>
				<path class="st2" d="M745.4,418.8v-1.9h53.8c0.6,6.5,3.3,20.2,34.2,20.2h1.3c30.2,0,34.2-8.5,34.2-16.3
					c0-8.1-4.8-13.8-30.4-14.4l-21.3-0.6c-54.2-1.7-69.8-22.3-69.8-46.3v-1.9c0-25.6,15-46.5,81.1-46.5h7.9
					c71.7,0,82.3,25.4,82.3,47.1v1.7h-52.9c-1-6.5-5-15.8-32.7-15.8h-1.9c-26.5,0-31.9,5.2-31.9,12.7c0,7.1,5.2,12.7,28.8,13.3
					l21.9,0.6c57.7,1.7,71.5,19.8,71.5,46.1v2.5c0,24-10.8,51.7-84.2,51.7h-5.6C753.7,471.1,745.4,438.6,745.4,418.8z"/>
				<path class="st2" d="M1037,313.3c82.9,0,101.5,39.4,101.5,72.7v6.3c0,34.2-15.4,76.1-101.3,76.1h-85.7V313.3H1037z
					 M1032.6,431.1c49.2,0,54-23.6,54-40.2v-1.3c0-16-5-39.2-54-39.2h-31.3v80.7H1032.6z"/>
			</g>
		</g>
		<g class="st0">
			<g class="st3">
				<g>
					<path class="st2" d="M391.5,583.6c-1.9,9.4-5.8,16.4-11.9,21.1c-6,4.6-13.8,7-23.2,7c-7.8,0-14.5-1.7-20.1-5.2
						c-5.6-3.5-9.8-8.3-12.8-14.6c-2.9-6.3-4.4-13.5-4.4-21.7c0-8.2,1.5-15.5,4.4-21.7c2.9-6.3,7.2-11.1,12.8-14.6
						c5.6-3.5,12.3-5.2,20.1-5.2c6.1,0,11.6,1.1,16.5,3.3c4.9,2.2,8.9,5.5,12.1,9.7c3.2,4.2,5.4,9.2,6.5,15h-10.2
						c-1.7-5.9-4.7-10.5-8.9-13.7c-4.2-3.3-9.5-4.9-16-4.9c-5.8,0-10.7,1.3-14.7,4c-4,2.7-7,6.4-9,11.2c-2,4.8-3,10.4-3.1,16.9
						c0,6.4,1,12,3,16.8c2,4.8,5,8.6,9,11.2c4,2.7,8.9,4,14.7,4c6.5,0,11.8-1.6,16-4.9c4.2-3.3,7.2-7.8,8.9-13.7H391.5z"/>
					<path class="st2" d="M431.8,611.7c-5.8,0-10.9-1.3-15.4-3.9c-4.4-2.6-7.8-6.2-10.2-11c-2.4-4.7-3.6-10.2-3.6-16.3
						c0-6.5,1.2-12.1,3.6-16.9c2.4-4.8,5.7-8.5,10.1-11.1c4.3-2.6,9.4-3.9,15.1-3.9c5.9,0,11,1.4,15.3,4.1s7.4,6.7,9.6,11.9
						c2.1,5.2,3,11.2,2.7,18.3h-10v-3.5c-0.1-4.9-0.8-9-2.1-12.2c-1.3-3.2-3.2-5.7-5.8-7.3c-2.5-1.6-5.7-2.4-9.5-2.4
						c-4,0-7.4,0.9-10.2,2.6c-2.8,1.8-4.9,4.3-6.3,7.7c-1.4,3.4-2.1,7.5-2.1,12.4c0,4.7,0.7,8.7,2.1,12c1.4,3.3,3.5,5.8,6.3,7.6
						c2.7,1.8,6.1,2.6,9.9,2.6c2.8,0,5.2-0.3,7.4-0.9c2.2-0.6,4.1-1.6,5.8-3c1.7-1.4,3.1-3.3,4.2-5.6h9.5c-1,4-2.8,7.5-5.4,10.3
						c-2.5,2.8-5.6,5-9.2,6.4C439.9,611,436,611.7,431.8,611.7z M409.7,582.9V575h44.1v7.9H409.7z"/>
					<path class="st2" d="M473.4,610l0.1-31.5h9.9v16.8l0.1,2l-0.1,12.7H473.4z M516,580.1c0-4.3-0.5-8.1-1.4-11.2
						c-0.9-3.2-2.6-5.8-4.9-7.8c-2.3-2-5.5-3-9.5-3c-3.4,0-6.3,0.8-8.9,2.3c-2.5,1.5-4.5,3.8-5.9,6.9c-1.4,3.1-2.1,6.8-2.1,11.3
						h-9.9c0-6.9,1.3-12.6,3.8-17.1c2.5-4.5,5.8-7.8,10-9.8c4.1-2.1,8.6-3,13.5-2.9c4.8,0.1,9.2,1.3,13,3.5c3.8,2.2,6.8,5.5,9,9.7
						c2.2,4.2,3.3,9.2,3.3,15.1v33h-10V580.1z"/>
					<path class="st2" d="M535.9,558.4v-8.1h40v8.1H535.9z M575.9,610c-5.9,1.2-11.1,1.2-15.8,0.2s-8-3.5-10-7.4
						c-1-1.9-1.5-3.8-1.8-5.7c-0.2-1.9-0.3-4.5-0.3-7.8v-1.9v-53.8h9.8V587v1.7c0,2.4,0,4.3,0.1,5.6c0.1,1.3,0.5,2.5,1.1,3.5
						c1.3,2.2,3.2,3.6,6,4.1c2.7,0.5,6.3,0.4,10.8-0.3V610z"/>
					<path class="st2" d="M590.3,610v-39.4l8.8-9.4v3.5l-8.8,5.9c0-2.6,0.7-5.3,2.2-7.9c1.5-2.7,3.6-5.3,6.5-7.9
						c1.8-1.6,4-2.8,6.8-3.6c2.7-0.8,5.5-1.3,8.3-1.4c2.8-0.1,5.1,0,7.1,0.4v9.2c-2.4-0.6-4.8-0.8-7.3-0.5c-2.5,0.3-4.8,1.1-6.8,2.4
						c-1.7,1.1-3,2.4-4,3.8c-1,1.5-1.7,3-2.1,4.6c-0.4,1.6-0.7,3.4-0.7,5.4v0.6V610H590.3z"/>
					<path class="st2" d="M659.7,611.7c-5.8,0-10.9-1.3-15.4-3.9c-4.4-2.6-7.8-6.2-10.2-11c-2.4-4.7-3.6-10.2-3.6-16.3
						c0-6.5,1.2-12.1,3.6-16.9c2.4-4.8,5.7-8.5,10.1-11.1c4.3-2.6,9.4-3.9,15.1-3.9c5.9,0,11,1.4,15.3,4.1s7.4,6.7,9.6,11.9
						c2.1,5.2,3,11.2,2.7,18.3h-10v-3.5c-0.1-4.9-0.8-9-2.1-12.2c-1.3-3.2-3.2-5.7-5.8-7.3c-2.5-1.6-5.7-2.4-9.5-2.4
						c-4,0-7.4,0.9-10.2,2.6c-2.8,1.8-4.9,4.3-6.3,7.7c-1.4,3.4-2.1,7.5-2.1,12.4c0,4.7,0.7,8.7,2.1,12c1.4,3.3,3.5,5.8,6.3,7.6
						c2.7,1.8,6.1,2.6,9.9,2.6c2.8,0,5.2-0.3,7.4-0.9c2.2-0.6,4.1-1.6,5.8-3c1.7-1.4,3.1-3.3,4.2-5.6h9.5c-1,4-2.8,7.5-5.4,10.3
						c-2.5,2.8-5.6,5-9.2,6.4C667.8,611,663.9,611.7,659.7,611.7z M637.6,582.9V575h44.1v7.9H637.6z"/>
					<path class="st2" d="M753.2,611.7c-5.5,0-10.3-1.4-14.5-4.1c-4.1-2.7-7.4-6.5-9.6-11.3c-2.3-4.8-3.4-10.2-3.4-16.2
						c0-6.2,1-11.6,3.1-16.4c2.1-4.8,5.1-8.5,9-11.1c3.9-2.7,8.7-4,14.2-4c5.4,0,10.3,1.4,14.5,4.1c4.3,2.7,7.6,6.5,9.9,11.3
						c2.4,4.8,3.5,10.2,3.5,16.1c0,6-1.1,11.4-3.2,16.2c-2.2,4.8-5.3,8.6-9.3,11.3C763.4,610.3,758.6,611.7,753.2,611.7z
						 M725.7,636.6v-56.5h8.8v14.2h1.1v42.3H725.7z M752.2,602.7c3.8,0,7-1,9.6-2.9c2.6-2,4.5-4.6,5.8-8c1.3-3.4,1.9-7.3,1.9-11.6
						c0-4.3-0.6-8.2-1.9-11.6c-1.3-3.4-3.2-6.1-5.8-8c-2.6-1.9-5.9-2.9-9.8-2.9c-3.8,0-7,0.9-9.5,2.8c-2.6,1.9-4.5,4.5-5.7,7.9
						c-1.3,3.4-1.9,7.3-1.9,11.8c0,4.5,0.6,8.4,1.9,11.8c1.3,3.4,3.2,6,5.8,7.9C745.1,601.7,748.3,602.7,752.2,602.7z"/>
					<path class="st2" d="M819.8,611.7c-5.9,0-11-1.3-15.3-4c-4.3-2.7-7.7-6.4-10-11.2c-2.3-4.8-3.5-10.2-3.5-16.4
						c0-6.2,1.2-11.7,3.5-16.4c2.4-4.8,5.7-8.5,10.1-11.1c4.4-2.6,9.4-4,15.2-4c5.9,0,11,1.3,15.4,4c4.3,2.7,7.7,6.4,10,11.1
						c2.3,4.8,3.5,10.2,3.5,16.4c0,6.2-1.2,11.7-3.5,16.5c-2.3,4.8-5.7,8.5-10,11.1C830.7,610.4,825.6,611.7,819.8,611.7z
						 M819.8,602.3c4,0,7.4-0.9,10.2-2.8c2.7-1.8,4.8-4.4,6.2-7.8c1.4-3.4,2-7.2,2-11.7c0-6.9-1.6-12.3-4.7-16.2
						c-3.1-3.9-7.7-5.9-13.7-5.9c-4.1,0-7.4,0.9-10.2,2.8c-2.7,1.8-4.8,4.4-6.1,7.7c-1.3,3.3-2,7.2-2,11.6c0,4.5,0.7,8.5,2.1,11.8
						c1.4,3.3,3.5,5.9,6.2,7.7C812.5,601.4,815.8,602.3,819.8,602.3z"/>
					<path class="st2" d="M888.2,612.2c-5.9,0-10.8-1.2-14.7-3.6c-3.9-2.4-6.9-5.8-8.8-10.1c-1.9-4.3-2.8-9.4-2.8-15.2v-33h10v31.3
						c0,5.1,0.8,9.2,2.3,12.3c1.5,3.2,3.5,5.4,5.9,6.8c2.5,1.4,5.2,2.1,8.1,2.1c3,0,5.7-0.6,8.1-1.9c2.4-1.3,4.4-3.5,5.9-6.5
						c1.5-3.1,2.3-7.1,2.3-12.1l9.8-0.1c0,7.5-1.1,13.4-3.3,17.9c-2.2,4.4-5.2,7.6-9.1,9.4C898.1,611.3,893.5,612.2,888.2,612.2z
						 M904.5,582.2v-16.4v-2.6v-12.9h9.9l-0.1,31.9L904.5,582.2z"/>
					<path class="st2" d="M932.1,610v-39.4l8.8-9.4v3.5l-8.8,5.9c0-2.6,0.7-5.3,2.2-7.9c1.5-2.7,3.6-5.3,6.5-7.9
						c1.8-1.6,4-2.8,6.8-3.6c2.7-0.8,5.5-1.3,8.3-1.4c2.8-0.1,5.1,0,7.1,0.4v9.2c-2.4-0.6-4.8-0.8-7.3-0.5c-2.5,0.3-4.8,1.1-6.8,2.4
						c-1.7,1.1-3,2.4-4,3.8c-1,1.5-1.7,3-2.1,4.6c-0.4,1.6-0.7,3.4-0.7,5.4v0.6V610H932.1z"/>
					<path class="st2" d="M1001,610v-81.3h9.8V610H1001z"/>
					<path class="st2" d="M1030.4,560.7c2-3.8,4.9-6.8,8.7-8.9c3.9-2.1,8.6-3.2,14.1-3.2c5.5,0,10.2,1,14.1,3c3.9,2,6.6,4.9,8.3,8.7
						c0.8,1.7,1.3,3.6,1.5,5.6c0.3,2,0.4,4.4,0.4,7.2v37h-8.7v-12.5l2.4,1.3c-2.2,4.7-5.3,8-9.3,10c-4,1.9-9.1,2.9-15.2,2.9
						c-4.3,0-8-0.8-11-2.4c-3-1.6-5.3-3.8-6.9-6.4c-1.6-2.7-2.4-5.7-2.4-9c0-4.6,1.3-8.4,3.8-11.2c2.5-2.9,6.1-5,10.9-6.3
						c2.5-0.7,5.4-1.2,8.6-1.5c3.2-0.3,7.3-0.5,12.2-0.6c3.3-0.1,6.5-0.1,9.6-0.2l-3.5,0.6c0.4-5.8-0.6-10-3-12.7
						c-2.4-2.7-6.3-4.1-11.7-4.1c-3.1,0-5.8,0.6-8.1,1.7c-2.3,1.1-4.2,2.8-5.6,5.1L1030.4,560.7z M1048.2,603.4
						c3.5,0,6.7-0.5,9.4-1.5c2.7-1,4.9-2.5,6.6-4.4c1.6-1.9,2.6-4.1,2.8-6.5c0.3-1.9,0.5-4,0.6-6.3c0.1-2.3,0.1-4.4,0.1-6.4l3.4,3.9
						c-2.1,0-3.6,0-4.6,0c-5.1,0-9.2,0.1-12.4,0.3c-3.2,0.2-6.1,0.7-8.7,1.4c-2.8,0.9-5.1,2.1-6.7,3.7c-1.7,1.5-2.5,3.6-2.5,6.2
						c0,1.7,0.4,3.3,1.3,4.8c0.8,1.5,2.2,2.6,4,3.5C1043.2,603,1045.5,603.4,1048.2,603.4z"/>
					<path class="st2" d="M1186.3,583.6c-1.9,9.4-5.8,16.4-11.9,21.1c-6,4.6-13.8,7-23.2,7c-7.8,0-14.5-1.7-20.1-5.2
						c-5.6-3.5-9.8-8.3-12.8-14.6c-2.9-6.3-4.4-13.5-4.4-21.7c0-8.2,1.5-15.5,4.4-21.7c2.9-6.3,7.2-11.1,12.8-14.6
						c5.6-3.5,12.3-5.2,20.1-5.2c6.1,0,11.6,1.1,16.5,3.3c4.9,2.2,8.9,5.5,12.1,9.7c3.2,4.2,5.4,9.2,6.5,15h-10.2
						c-1.7-5.9-4.7-10.5-8.9-13.7c-4.2-3.3-9.5-4.9-16-4.9c-5.8,0-10.7,1.3-14.7,4c-4,2.7-7,6.4-9,11.2c-2,4.8-3,10.4-3.1,16.9
						c0,6.4,1,12,3,16.8c2,4.8,5,8.6,9,11.2c4,2.7,8.9,4,14.7,4c6.5,0,11.8-1.6,16-4.9c4.2-3.3,7.2-7.8,8.9-13.7H1186.3z"/>
					<path class="st2" d="M1226.1,611.7c-5.9,0-11-1.3-15.3-4c-4.3-2.7-7.7-6.4-10-11.2c-2.3-4.8-3.5-10.2-3.5-16.4
						c0-6.2,1.2-11.7,3.5-16.4c2.4-4.8,5.7-8.5,10.1-11.1c4.4-2.6,9.4-4,15.2-4c5.9,0,11,1.3,15.4,4c4.3,2.7,7.7,6.4,10,11.1
						c2.3,4.8,3.5,10.2,3.5,16.4c0,6.2-1.2,11.7-3.5,16.5c-2.3,4.8-5.7,8.5-10,11.1C1237.1,610.4,1232,611.7,1226.1,611.7z
						 M1226.1,602.3c4,0,7.4-0.9,10.2-2.8c2.7-1.8,4.8-4.4,6.2-7.8c1.4-3.4,2-7.2,2-11.7c0-6.9-1.6-12.3-4.7-16.2
						c-3.1-3.9-7.7-5.9-13.7-5.9c-4.1,0-7.4,0.9-10.2,2.8c-2.7,1.8-4.8,4.4-6.1,7.7c-1.3,3.3-2,7.2-2,11.6c0,4.5,0.7,8.5,2.1,11.8
						c1.4,3.3,3.5,5.9,6.2,7.7C1218.9,601.4,1222.2,602.3,1226.1,602.3z"/>
					<path class="st2" d="M1305.1,572.2c0-3-0.5-5.6-1.6-7.8c-1.1-2.2-2.6-3.9-4.5-5.1c-1.9-1.2-4.2-1.8-6.8-1.8
						c-2.5,0-4.8,0.6-6.8,1.8c-2,1.2-3.5,2.9-4.6,5.1c-1.1,2.2-1.6,4.7-1.6,7.6h-9.9c0-5.2,1.1-9.5,3.2-13c2.2-3.5,5-6.1,8.6-7.8
						c3.6-1.7,7.4-2.5,11.6-2.5c4.4,0,8.3,0.9,11.6,2.6c3.4,1.7,6,4.2,7.8,7.3c1.8,3.2,2.8,6.9,2.8,11.2l-0.1,40.2h-9.8
						L1305.1,572.2z M1269.3,610v-37.9h10l-0.1,0.8V610H1269.3z M1340.8,571.8c0-2.9-0.5-5.4-1.6-7.6c-1.1-2.1-2.6-3.8-4.5-5
						c-1.9-1.2-4.2-1.7-6.7-1.7c-2.3,0-4.5,0.5-6.4,1.6c-2,1.1-3.6,2.7-4.8,4.9c-1.2,2.2-1.8,4.9-1.8,8.1l-7.1-2.1
						c-0.1-4.2,0.8-7.9,2.7-11.1c1.9-3.2,4.5-5.7,7.8-7.5c3.3-1.8,6.9-2.7,10.9-2.7c4.1,0,7.8,0.9,11.1,2.6c3.3,1.7,5.8,4.2,7.7,7.3
						c1.8,3.2,2.8,6.8,2.8,11l-0.1,40.4h-9.8L1340.8,571.8z"/>
					<path class="st2" d="M1403,572.2c0-3-0.5-5.6-1.6-7.8c-1.1-2.2-2.6-3.9-4.5-5.1c-1.9-1.2-4.2-1.8-6.8-1.8
						c-2.5,0-4.8,0.6-6.8,1.8c-2,1.2-3.5,2.9-4.6,5.1c-1.1,2.2-1.6,4.7-1.6,7.6h-9.9c0-5.2,1.1-9.5,3.2-13c2.2-3.5,5-6.1,8.6-7.8
						c3.6-1.7,7.4-2.5,11.6-2.5c4.4,0,8.3,0.9,11.6,2.6c3.4,1.7,6,4.2,7.8,7.3c1.8,3.2,2.8,6.9,2.8,11.2l-0.1,40.2h-9.8L1403,572.2z
						 M1367.2,610v-37.9h10l-0.1,0.8V610H1367.2z M1438.7,571.8c0-2.9-0.5-5.4-1.6-7.6c-1.1-2.1-2.6-3.8-4.5-5
						c-1.9-1.2-4.2-1.7-6.7-1.7c-2.3,0-4.5,0.5-6.4,1.6c-2,1.1-3.6,2.7-4.8,4.9c-1.2,2.2-1.8,4.9-1.8,8.1l-7.1-2.1
						c-0.1-4.2,0.8-7.9,2.7-11.1c1.9-3.2,4.5-5.7,7.8-7.5c3.3-1.8,6.9-2.7,10.9-2.7c4.1,0,7.8,0.9,11.1,2.6c3.3,1.7,5.8,4.2,7.7,7.3
						c1.8,3.2,2.8,6.8,2.8,11l-0.1,40.4h-9.8L1438.7,571.8z"/>
					<path class="st2" d="M1490.4,612.2c-5.9,0-10.8-1.2-14.7-3.6c-3.9-2.4-6.9-5.8-8.8-10.1c-1.9-4.3-2.8-9.4-2.8-15.2v-33h10v31.3
						c0,5.1,0.8,9.2,2.3,12.3c1.5,3.2,3.5,5.4,5.9,6.8c2.5,1.4,5.2,2.1,8.1,2.1c3,0,5.7-0.6,8.1-1.9c2.4-1.3,4.4-3.5,5.9-6.5
						c1.5-3.1,2.3-7.1,2.3-12.1l9.8-0.1c0,7.5-1.1,13.4-3.3,17.9c-2.2,4.4-5.2,7.6-9.1,9.4C1500.3,611.3,1495.7,612.2,1490.4,612.2z
						 M1506.7,582.2v-16.4v-2.6v-12.9h9.9l-0.1,31.9L1506.7,582.2z"/>
					<path class="st2" d="M1534.2,610l0.1-31.5h9.9v16.8l0.1,2l-0.1,12.7H1534.2z M1576.8,580.1c0-4.3-0.5-8.1-1.4-11.2
						c-0.9-3.2-2.6-5.8-4.9-7.8c-2.3-2-5.5-3-9.5-3c-3.4,0-6.3,0.8-8.9,2.3c-2.5,1.5-4.5,3.8-5.9,6.9c-1.4,3.1-2.1,6.8-2.1,11.3
						h-9.9c0-6.9,1.3-12.6,3.8-17.1c2.5-4.5,5.8-7.8,10-9.8c4.1-2.1,8.6-3,13.5-2.9c4.8,0.1,9.2,1.3,13,3.5c3.8,2.2,6.8,5.5,9,9.7
						c2.2,4.2,3.3,9.2,3.3,15.1v33h-10V580.1z"/>
					<path class="st2" d="M1604.5,539.7v-10.2h9.8v10.2H1604.5z M1604.5,610v-59.7h9.8V610H1604.5z"/>
					<path class="st2" d="M1658.3,611.7c-5.9,0-11-1.3-15.3-4c-4.3-2.7-7.5-6.4-9.8-11.1c-2.2-4.8-3.4-10.2-3.4-16.4
						c0-6.2,1.2-11.7,3.5-16.5c2.3-4.8,5.6-8.5,9.9-11.1c4.3-2.6,9.4-4,15.2-4c4.2,0,8,0.7,11.5,2.1c3.5,1.4,6.4,3.4,8.8,6
						c2.4,2.6,4.1,5.7,5.2,9.2l-9.7,2.9c-1.3-3.4-3.3-6.1-6.1-8c-2.8-1.9-6-2.9-9.7-2.9c-5.9,0-10.4,2-13.4,6c-3,4-4.6,9.4-4.6,16.2
						c0,4.5,0.7,8.4,2.1,11.7c1.4,3.3,3.4,5.9,6.1,7.7c2.7,1.8,6,2.7,9.8,2.7c3.8,0,7.1-0.9,9.7-2.7c2.6-1.8,4.6-4.4,5.9-7.8l10,2.6
						c-2.1,5.6-5.3,9.8-9.7,12.8C1669.8,610.2,1664.5,611.7,1658.3,611.7z"/>
					<path class="st2" d="M1698.1,560.7c2-3.8,4.9-6.8,8.7-8.9c3.9-2.1,8.6-3.2,14.1-3.2c5.5,0,10.2,1,14.1,3c3.9,2,6.6,4.9,8.3,8.7
						c0.8,1.7,1.3,3.6,1.5,5.6c0.3,2,0.4,4.4,0.4,7.2v37h-8.7v-12.5l2.4,1.3c-2.2,4.7-5.3,8-9.3,10c-4,1.9-9.1,2.9-15.2,2.9
						c-4.3,0-8-0.8-11-2.4c-3-1.6-5.3-3.8-6.9-6.4c-1.6-2.7-2.4-5.7-2.4-9c0-4.6,1.3-8.4,3.8-11.2c2.5-2.9,6.1-5,10.9-6.3
						c2.5-0.7,5.4-1.2,8.6-1.5c3.2-0.3,7.3-0.5,12.2-0.6c3.3-0.1,6.5-0.1,9.6-0.2l-3.5,0.6c0.4-5.8-0.6-10-3-12.7
						c-2.4-2.7-6.3-4.1-11.7-4.1c-3.1,0-5.8,0.6-8.1,1.7c-2.3,1.1-4.2,2.8-5.6,5.1L1698.1,560.7z M1715.9,603.4
						c3.5,0,6.7-0.5,9.4-1.5c2.7-1,4.9-2.5,6.6-4.4c1.6-1.9,2.6-4.1,2.8-6.5c0.3-1.9,0.5-4,0.6-6.3c0.1-2.3,0.1-4.4,0.1-6.4l3.4,3.9
						c-2.1,0-3.6,0-4.6,0c-5.1,0-9.2,0.1-12.4,0.3s-6.1,0.7-8.7,1.4c-2.8,0.9-5.1,2.1-6.7,3.7s-2.5,3.6-2.5,6.2
						c0,1.7,0.4,3.3,1.3,4.8c0.8,1.5,2.2,2.6,4,3.5C1710.9,603,1713.2,603.4,1715.9,603.4z"/>
					<path class="st2" d="M1755.2,558.4v-8.1h40v8.1H1755.2z M1795.2,610c-5.9,1.2-11.1,1.2-15.8,0.2s-8-3.5-10-7.4
						c-1-1.9-1.5-3.8-1.8-5.7c-0.2-1.9-0.3-4.5-0.3-7.8v-1.9v-53.8h9.8V587v1.7c0,2.4,0,4.3,0.1,5.6c0.1,1.3,0.5,2.5,1.1,3.5
						c1.3,2.2,3.2,3.6,6,4.1c2.7,0.5,6.3,0.4,10.8-0.3V610z"/>
					<path class="st2" d="M1810.7,539.7v-10.2h9.8v10.2H1810.7z M1810.7,610v-59.7h9.8V610H1810.7z"/>
					<path class="st2" d="M1864.8,611.7c-5.9,0-11-1.3-15.3-4c-4.3-2.7-7.7-6.4-10-11.2c-2.3-4.8-3.5-10.2-3.5-16.4
						c0-6.2,1.2-11.7,3.5-16.4c2.4-4.8,5.7-8.5,10.1-11.1c4.4-2.6,9.4-4,15.2-4c5.9,0,11,1.3,15.4,4c4.3,2.7,7.7,6.4,10,11.1
						c2.3,4.8,3.5,10.2,3.5,16.4c0,6.2-1.2,11.7-3.5,16.5c-2.3,4.8-5.7,8.5-10,11.1C1875.7,610.4,1870.6,611.7,1864.8,611.7z
						 M1864.8,602.3c4,0,7.4-0.9,10.2-2.8c2.7-1.8,4.8-4.4,6.2-7.8c1.4-3.4,2-7.2,2-11.7c0-6.9-1.6-12.3-4.7-16.2
						c-3.1-3.9-7.7-5.9-13.7-5.9c-4.1,0-7.5,0.9-10.2,2.8c-2.7,1.8-4.8,4.4-6.1,7.7c-1.3,3.3-2,7.2-2,11.6c0,4.5,0.7,8.5,2.1,11.8
						c1.4,3.3,3.5,5.9,6.2,7.7C1857.5,601.4,1860.8,602.3,1864.8,602.3z"/>
					<path class="st2" d="M1907.9,610l0.1-31.5h9.9v16.8l0.1,2l-0.1,12.7H1907.9z M1950.5,580.1c0-4.3-0.5-8.1-1.4-11.2
						c-0.9-3.2-2.6-5.8-4.9-7.8c-2.3-2-5.5-3-9.5-3c-3.4,0-6.3,0.8-8.9,2.3c-2.5,1.5-4.5,3.8-5.9,6.9c-1.4,3.1-2.1,6.8-2.1,11.3
						h-9.9c0-6.9,1.3-12.6,3.8-17.1c2.5-4.5,5.8-7.8,10-9.8c4.1-2.1,8.6-3,13.5-2.9c4.8,0.1,9.2,1.3,13,3.5c3.8,2.2,6.8,5.5,9,9.7
						c2.2,4.2,3.3,9.2,3.3,15.1v33h-10V580.1z"/>
					<path class="st2" d="M351.9,744.4c-5.6,0-10.7-1-15.2-2.9c-4.5-1.9-8.3-4.7-11.2-8.2c-2.9-3.6-4.8-7.8-5.7-12.6l10.2-1.6
						c0.8,3.3,2.3,6.1,4.5,8.5c2.1,2.4,4.7,4.3,7.8,5.5c3.1,1.3,6.5,1.9,10.2,1.9c3.6,0,6.8-0.6,9.7-1.7c2.9-1.1,5.2-2.8,6.9-4.9
						c1.7-2.1,2.5-4.6,2.5-7.4c0-2.2-0.5-4.1-1.5-5.6c-1-1.5-2.3-2.7-3.9-3.7c-1.6-0.9-3.5-1.7-5.7-2.4l-20.3-6
						c-3.4-1-6.3-2.3-8.8-3.8c-2.5-1.5-4.5-3.6-6.1-6.2c-1.6-2.6-2.4-5.8-2.4-9.5c0-4.6,1.2-8.6,3.6-11.9c2.4-3.4,5.7-6,10-7.7
						c4.2-1.8,9-2.7,14.3-2.7c5.3,0,10.1,1,14.4,2.8c4.2,1.9,7.7,4.5,10.5,8c2.8,3.5,4.6,7.6,5.6,12.4l-10.5,1.8
						c-0.6-3.2-1.8-5.9-3.7-8.3c-1.9-2.4-4.3-4.2-7.1-5.5c-2.8-1.3-6-2-9.3-2c-3.2,0-6.1,0.5-8.8,1.5c-2.7,1.1-4.7,2.6-6.3,4.5
						c-1.5,1.9-2.3,4.1-2.3,6.5c0,2.3,0.6,4.2,1.9,5.7c1.3,1.5,2.9,2.7,4.7,3.5c1.9,0.8,4.1,1.6,6.6,2.4l15.2,4.4
						c3.4,1,6.5,2.1,9.3,3.5c2.8,1.3,5.3,3.5,7.4,6.4c2.2,2.9,3.3,6.7,3.3,11.4c0,5-1.3,9.3-3.9,12.9c-2.6,3.6-6.2,6.3-10.7,8.2
						C362.6,743.5,357.5,744.4,351.9,744.4z"/>
					<path class="st2" d="M420.8,744.4c-5.9,0-11-1.3-15.3-4c-4.3-2.7-7.5-6.4-9.8-11.1c-2.2-4.8-3.4-10.2-3.4-16.4
						c0-6.2,1.2-11.7,3.5-16.5c2.3-4.8,5.6-8.5,9.9-11.1c4.3-2.6,9.4-4,15.2-4c4.2,0,8,0.7,11.5,2.1c3.5,1.4,6.4,3.4,8.8,6
						c2.4,2.6,4.1,5.7,5.2,9.2l-9.7,2.9c-1.3-3.4-3.3-6.1-6.1-8c-2.8-1.9-6-2.9-9.7-2.9c-5.9,0-10.4,2-13.4,6c-3,4-4.6,9.4-4.6,16.2
						c0,4.5,0.7,8.4,2.1,11.7c1.4,3.3,3.4,5.9,6.1,7.7c2.7,1.8,6,2.7,9.8,2.7c3.8,0,7.1-0.9,9.7-2.7c2.6-1.8,4.6-4.4,5.9-7.8l10,2.6
						c-2.1,5.6-5.3,9.8-9.7,12.8C432.2,743,427,744.4,420.8,744.4z"/>
					<path class="st2" d="M461,672.5v-10.2h9.8v10.2H461z M461,742.8V683h9.8v59.7H461z"/>
					<path class="st2" d="M515.5,744.4c-5.8,0-10.9-1.3-15.4-3.9c-4.4-2.6-7.8-6.2-10.2-11c-2.4-4.7-3.6-10.2-3.6-16.3
						c0-6.5,1.2-12.1,3.6-16.9c2.4-4.8,5.7-8.5,10.1-11.1c4.3-2.6,9.4-3.9,15.1-3.9c5.9,0,11,1.4,15.3,4.1s7.4,6.7,9.6,11.9
						c2.1,5.2,3,11.2,2.7,18.3h-10v-3.5c-0.1-4.9-0.8-9-2.1-12.2c-1.3-3.2-3.2-5.7-5.8-7.3c-2.5-1.6-5.7-2.4-9.5-2.4
						c-4,0-7.4,0.9-10.2,2.6c-2.8,1.8-4.9,4.3-6.3,7.7c-1.4,3.4-2.1,7.5-2.1,12.4c0,4.7,0.7,8.7,2.1,12c1.4,3.3,3.5,5.8,6.3,7.6
						c2.7,1.8,6.1,2.6,9.9,2.6c2.8,0,5.2-0.3,7.4-0.9c2.2-0.6,4.1-1.6,5.8-3c1.7-1.4,3.1-3.3,4.2-5.6h9.5c-1,4-2.8,7.5-5.4,10.3
						c-2.5,2.8-5.6,5-9.2,6.4C523.7,743.7,519.8,744.4,515.5,744.4z M493.4,715.7v-7.9h44.1v7.9H493.4z"/>
					<path class="st2" d="M557.1,742.8l0.1-31.5h9.9v16.8l0.1,2l-0.1,12.7H557.1z M599.7,712.9c0-4.3-0.5-8.1-1.4-11.2
						c-0.9-3.2-2.6-5.8-4.9-7.8c-2.3-2-5.5-3-9.5-3c-3.4,0-6.3,0.8-8.9,2.3c-2.5,1.5-4.5,3.8-5.9,6.9c-1.4,3.1-2.1,6.8-2.1,11.3
						h-9.9c0-6.9,1.3-12.6,3.8-17.1c2.5-4.5,5.8-7.8,10-9.8c4.1-2.1,8.6-3,13.5-2.9c4.8,0.1,9.2,1.3,13,3.5c3.8,2.2,6.8,5.5,9,9.7
						c2.2,4.2,3.3,9.2,3.3,15.1v33h-10V712.9z"/>
					<path class="st2" d="M619.6,691.2V683h40v8.1H619.6z M659.6,742.8c-5.9,1.2-11.1,1.2-15.8,0.2s-8-3.5-10-7.4
						c-1-1.9-1.5-3.8-1.8-5.7c-0.2-1.9-0.3-4.5-0.3-7.8v-1.9v-53.8h9.8v53.3v1.7c0,2.4,0,4.3,0.1,5.6c0.1,1.3,0.5,2.5,1.1,3.5
						c1.3,2.2,3.2,3.6,6,4.1c2.7,0.5,6.3,0.4,10.8-0.3V742.8z"/>
					<path class="st2" d="M675.1,672.5v-10.2h9.8v10.2H675.1z M675.1,742.8V683h9.8v59.7H675.1z"/>
					<path class="st2" d="M699.3,691.2V683h46.2v8.1H699.3z M709.5,679.8v-0.9c0-1.8,0.1-3.4,0.3-4.8c0.2-1.4,0.5-2.7,1.1-4.1
						c0.5-1.4,1.3-2.7,2.4-3.8c1.2-1.3,2.5-2.3,3.9-3c1.4-0.7,2.9-1.1,4.3-1.4c1.4-0.2,3-0.3,4.8-0.3h1.2h7.6v8.2h-7
						c-2.9,0-5.1,0.7-6.5,2.2s-2.2,3.6-2.2,6.4v64.6h-9.8V679.8z M745.5,671.6v-10.2h9.8v10.2H745.5z M745.5,742.8V683
						c1.8,0,3.5,0.4,5,1.3s2.7,2.1,3.6,3.6c0.9,1.5,1.3,3.2,1.3,4.9v49.9H745.5z"/>
					<path class="st2" d="M797.6,744.4c-5.4,0-10.2-1.4-14.2-4.1c-4.1-2.7-7.2-6.5-9.3-11.3c-2.2-4.8-3.2-10.2-3.2-16.2
						c0-5.9,1.2-11.3,3.5-16.1c2.4-4.8,5.7-8.6,9.9-11.3c4.3-2.7,9.1-4.1,14.5-4.1c5.5,0,10.3,1.3,14.2,4c3.9,2.7,6.9,6.4,9,11.1
						s3.1,10.2,3.1,16.4c0,6-1.1,11.4-3.4,16.2c-2.2,4.8-5.5,8.6-9.6,11.3C808,743.1,803.1,744.4,797.6,744.4z M798.6,735.4
						c3.9,0,7.2-0.9,9.8-2.8c2.6-1.9,4.5-4.5,5.8-7.9c1.3-3.4,1.9-7.3,1.9-11.8c0-4.5-0.6-8.4-1.9-11.8c-1.3-3.4-3.2-6-5.8-7.9
						c-2.6-1.9-5.7-2.8-9.5-2.8c-3.9,0-7.2,1-9.8,2.9c-2.6,1.9-4.6,4.6-5.8,8c-1.3,3.4-1.9,7.2-1.9,11.6c0,4.4,0.6,8.2,1.9,11.6
						c1.3,3.4,3.2,6.1,5.8,8C791.6,734.5,794.8,735.4,798.6,735.4z M825.1,769.3h-9.9V727h1.1v-14.2h8.8V769.3z"/>
					<path class="st2" d="M868.1,744.9c-5.9,0-10.8-1.2-14.7-3.6c-3.9-2.4-6.9-5.8-8.8-10.1c-1.9-4.3-2.8-9.4-2.8-15.2v-33h10v31.3
						c0,5.1,0.8,9.2,2.3,12.3c1.5,3.2,3.5,5.4,5.9,6.8c2.5,1.4,5.2,2.1,8.1,2.1c3,0,5.7-0.6,8.1-1.9c2.4-1.3,4.4-3.5,5.9-6.5
						c1.5-3.1,2.3-7.1,2.3-12.1l9.8-0.1c0,7.5-1.1,13.4-3.3,17.9c-2.2,4.4-5.2,7.6-9.1,9.4C877.9,744,873.4,744.9,868.1,744.9z
						 M884.3,715v-16.4v-2.6V683h9.9l-0.1,31.9L884.3,715z"/>
					<path class="st2" d="M937.8,744.4c-5.8,0-10.9-1.3-15.4-3.9c-4.4-2.6-7.8-6.2-10.2-11c-2.4-4.7-3.6-10.2-3.6-16.3
						c0-6.5,1.2-12.1,3.6-16.9c2.4-4.8,5.7-8.5,10.1-11.1c4.3-2.6,9.4-3.9,15.1-3.9c5.9,0,11,1.4,15.3,4.1s7.4,6.7,9.6,11.9
						c2.1,5.2,3,11.2,2.7,18.3h-10v-3.5c-0.1-4.9-0.8-9-2.1-12.2c-1.3-3.2-3.2-5.7-5.8-7.3c-2.5-1.6-5.7-2.4-9.5-2.4
						c-4,0-7.4,0.9-10.2,2.6c-2.8,1.8-4.9,4.3-6.3,7.7c-1.4,3.4-2.1,7.5-2.1,12.4c0,4.7,0.7,8.7,2.1,12c1.4,3.3,3.5,5.8,6.3,7.6
						c2.7,1.8,6.1,2.6,9.9,2.6c2.8,0,5.2-0.3,7.4-0.9c2.2-0.6,4.1-1.6,5.8-3c1.7-1.4,3.1-3.3,4.2-5.6h9.5c-1,4-2.8,7.5-5.4,10.3
						c-2.5,2.8-5.6,5-9.2,6.4C946,743.7,942.1,744.4,937.8,744.4z M915.7,715.7v-7.9h44.1v7.9H915.7z"/>
					<path class="st2" d="M1003.8,742.8v-79.7h24.6c4.2,0,7.6,0.2,10.1,0.5c6,0.8,11.1,3,15.3,6.6c4.2,3.6,7.4,8.3,9.5,13.9
						c2.1,5.7,3.2,11.9,3.2,18.8c0,6.9-1.1,13.2-3.2,18.8c-2.1,5.7-5.3,10.3-9.5,13.9c-4.2,3.6-9.3,5.8-15.3,6.6
						c-2.5,0.3-5.8,0.5-10.1,0.5H1003.8z M1028.4,733.4c4,0,7.1-0.2,9.2-0.6c4.2-0.8,7.7-2.6,10.4-5.4c2.7-2.8,4.7-6.3,6-10.5
						c1.3-4.2,1.9-8.8,1.9-14c0-5.2-0.7-9.8-2-14.1c-1.3-4.2-3.3-7.7-6.1-10.5c-2.7-2.8-6.2-4.5-10.3-5.3c-1.2-0.2-2.6-0.4-4.2-0.5
						c-1.6-0.1-3.3-0.1-5-0.1h-14.4v60.9H1028.4z"/>
					<path class="st2" d="M1082.5,672.5v-10.2h9.8v10.2H1082.5z M1082.5,742.8V683h9.8v59.7H1082.5z"/>
					<path class="st2" d="M1111.1,742.8v-39.4l8.8-9.4v3.5l-8.8,5.9c0-2.6,0.7-5.3,2.2-7.9c1.5-2.7,3.6-5.3,6.5-7.9
						c1.8-1.6,4-2.8,6.8-3.6c2.7-0.8,5.5-1.3,8.3-1.4c2.8-0.1,5.1,0,7.1,0.4v9.2c-2.4-0.6-4.8-0.8-7.3-0.5c-2.5,0.3-4.8,1.1-6.8,2.4
						c-1.7,1.1-3,2.4-4,3.8c-1,1.5-1.7,3-2.1,4.6c-0.4,1.6-0.7,3.4-0.7,5.4v0.6v34.2H1111.1z"/>
					<path class="st2" d="M1180.6,744.4c-5.8,0-10.9-1.3-15.4-3.9c-4.4-2.6-7.8-6.2-10.2-11c-2.4-4.7-3.6-10.2-3.6-16.3
						c0-6.5,1.2-12.1,3.6-16.9c2.4-4.8,5.7-8.5,10.1-11.1c4.3-2.6,9.4-3.9,15.1-3.9c5.9,0,11,1.4,15.3,4.1s7.4,6.7,9.6,11.9
						c2.1,5.2,3,11.2,2.7,18.3h-10v-3.5c-0.1-4.9-0.8-9-2.1-12.2c-1.3-3.2-3.2-5.7-5.8-7.3c-2.5-1.6-5.7-2.4-9.5-2.4
						c-4,0-7.4,0.9-10.2,2.6c-2.8,1.8-4.9,4.3-6.3,7.7c-1.4,3.4-2.1,7.5-2.1,12.4c0,4.7,0.7,8.7,2.1,12c1.4,3.3,3.5,5.8,6.3,7.6
						c2.7,1.8,6.1,2.6,9.9,2.6c2.8,0,5.2-0.3,7.4-0.9c2.2-0.6,4.1-1.6,5.8-3c1.7-1.4,3.1-3.3,4.2-5.6h9.5c-1,4-2.8,7.5-5.4,10.3
						c-2.5,2.8-5.6,5-9.2,6.4C1188.7,743.7,1184.8,744.4,1180.6,744.4z M1158.5,715.7v-7.9h44.1v7.9H1158.5z"/>
					<path class="st2" d="M1247.4,744.4c-5.9,0-11-1.3-15.3-4c-4.3-2.7-7.5-6.4-9.8-11.1c-2.2-4.8-3.4-10.2-3.4-16.4
						c0-6.2,1.2-11.7,3.5-16.5c2.3-4.8,5.6-8.5,9.9-11.1c4.3-2.6,9.4-4,15.2-4c4.2,0,8,0.7,11.5,2.1c3.5,1.4,6.4,3.4,8.8,6
						c2.4,2.6,4.1,5.7,5.2,9.2l-9.7,2.9c-1.3-3.4-3.3-6.1-6.1-8c-2.8-1.9-6-2.9-9.7-2.9c-5.9,0-10.4,2-13.4,6c-3,4-4.6,9.4-4.6,16.2
						c0,4.5,0.7,8.4,2.1,11.7c1.4,3.3,3.4,5.9,6.1,7.7c2.7,1.8,6,2.7,9.8,2.7c3.8,0,7.1-0.9,9.7-2.7c2.6-1.8,4.6-4.4,5.9-7.8l10,2.6
						c-2.1,5.6-5.3,9.8-9.7,12.8C1258.9,743,1253.6,744.4,1247.4,744.4z"/>
					<path class="st2" d="M1279.9,691.2V683h40v8.1H1279.9z M1319.8,742.8c-5.9,1.2-11.1,1.2-15.8,0.2s-8-3.5-10-7.4
						c-1-1.9-1.5-3.8-1.8-5.7c-0.2-1.9-0.3-4.5-0.3-7.8v-1.9v-53.8h9.8v53.3v1.7c0,2.4,0,4.3,0.1,5.6c0.1,1.3,0.5,2.5,1.1,3.5
						c1.3,2.2,3.2,3.6,6,4.1c2.7,0.5,6.3,0.4,10.8-0.3V742.8z"/>
					<path class="st2" d="M1360.1,744.4c-5.8,0-10.9-1.3-15.4-3.9c-4.4-2.6-7.8-6.2-10.2-11c-2.4-4.7-3.6-10.2-3.6-16.3
						c0-6.5,1.2-12.1,3.6-16.9c2.4-4.8,5.7-8.5,10.1-11.1c4.3-2.6,9.4-3.9,15.1-3.9c5.9,0,11,1.4,15.3,4.1s7.4,6.7,9.6,11.9
						c2.1,5.2,3,11.2,2.7,18.3h-10v-3.5c-0.1-4.9-0.8-9-2.1-12.2c-1.3-3.2-3.2-5.7-5.8-7.3c-2.5-1.6-5.7-2.4-9.5-2.4
						c-4,0-7.4,0.9-10.2,2.6c-2.8,1.8-4.9,4.3-6.3,7.7c-1.4,3.4-2.1,7.5-2.1,12.4c0,4.7,0.7,8.7,2.1,12c1.4,3.3,3.5,5.8,6.3,7.6
						c2.7,1.8,6.1,2.6,9.9,2.6c2.8,0,5.2-0.3,7.4-0.9c2.2-0.6,4.1-1.6,5.8-3c1.7-1.4,3.1-3.3,4.2-5.6h9.5c-1,4-2.8,7.5-5.4,10.3
						c-2.5,2.8-5.6,5-9.2,6.4C1368.3,743.7,1364.4,744.4,1360.1,744.4z M1338,715.7v-7.9h44.1v7.9H1338z"/>
				</g>
			</g>
		</g>
		<circle class="st4" cx="1206.9" cy="437.9" r="34.2"/>
		<rect x="1262.5" y="407.8" class="st5" width="60.3" height="60.3"/>
		<polygon class="st6" points="1396.3,407.8 1361.5,407.8 1344.1,437.9 1361.5,468 1396.3,468 1413.7,437.9 		"/>
	</g>
</g>
</svg>
