<?xml version="1.0" encoding="utf-8"?>
<!-- Generator: Adobe Illustrator 25.4.1, SVG Export Plug-In . SVG Version: 6.00 Build 0)  -->
<svg version="1.1" xmlns="http://www.w3.org/2000/svg" xmlns:xlink="http://www.w3.org/1999/xlink" x="0px" y="0px"
	 viewBox="0 0 524.7 524.7" style="enable-background:new 0 0 524.7 524.7;" xml:space="preserve">
<style type="text/css">
	.st0{display:none;}
	.st1{display:inline;fill:#FFFFFF;}
	.st2{fill:#00BEBE;}
	.st3{fill:#0FA0B9;}
	.st4{fill:#0A8FBE;}
	.st5{fill:#1164B4;}
	.st6{fill:#143CAA;}
	.st7{fill:#171775;}
</style>
<g id="Background" class="st0">
	<rect x="-2.6" y="-2.6" class="st1" width="530" height="530"/>
</g>
<g id="Contenu">
	<g>
		<g>
			<g>
				<g>
					<polygon class="st2" points="134.4,135.9 134.4,162.9 362.7,162.9 362.7,391.2 389.7,391.2 389.7,135.9 					"/>
				</g>
				<g>
					<polygon class="st3" points="134.4,192.2 134.4,219.3 303.2,204.6 319.5,391.2 346.6,391.2 327.7,175.3 					"/>
				</g>
				<g>
					<polygon class="st4" points="134.4,243.3 134.4,270.7 251.4,250.1 276.2,391.2 303.7,391.2 273.3,218.8 					"/>
				</g>
				<g>
					<polygon class="st5" points="134.4,291.1 134.4,319 207.7,299.4 232.3,391.2 260.2,391.2 226.8,266.3 					"/>
				</g>
				<g>
					<polygon class="st6" points="134.4,335.6 134.4,364.4 172.7,350.4 187.5,391.2 216.3,391.2 188.8,315.8 					"/>
				</g>
				<g>
					<polygon class="st7" points="134.4,379.1 134.4,391.2 169.3,391.2 158.4,367.9 					"/>
				</g>
			</g>
		</g>
	</g>
</g>
</svg>
