<?xml version="1.0" encoding="utf-8"?>
<!-- Generator: Adobe Illustrator 25.4.1, SVG Export Plug-In . SVG Version: 6.00 Build 0)  -->
<svg version="1.1" xmlns="http://www.w3.org/2000/svg" xmlns:xlink="http://www.w3.org/1999/xlink" x="0px" y="0px"
	 viewBox="0 0 524.7 524.7" style="enable-background:new 0 0 524.7 524.7;" xml:space="preserve">
<style type="text/css">
	.st0{display:none;}
	.st1{display:inline;fill:#FFFFFF;}
	.st2{fill:#FF4600;}
	.st3{fill:#CD3C1B;}
	.st4{fill:#A53232;}
	.st5{fill:#7D2D46;}
	.st6{fill:#64286E;}
	.st7{fill:#411489;}
	.st8{fill:#171775;}
</style>
<g id="Background" class="st0">
	<rect x="-2.6" y="-2.6" class="st1" width="530" height="530"/>
</g>
<g id="Contenu">
	<g>
		<g>
			<g>
				<g>
					<path class="st2" d="M334.9,192c5,5,11.6,7.8,18.7,7.8c0,0,0.1,0,0.1,0c6.1,0,11.8-2,16.5-5.8c-9.6-14.9-22.2-27.8-36.9-37.6
						c-3.9,4.7-6.1,10.6-6.1,16.8C327.1,180.3,329.9,187,334.9,192z"/>
				</g>
				<g>
					<path class="st3" d="M327.1,200.5c-14.6-14.5-22.6-33.8-22.5-54.2c0-1.4,0.1-2.8,0.1-4.1c-8.6-3-17.6-5.2-26.9-6.3
						c-0.4,3.4-0.5,6.9-0.5,10.3c-0.1,27.8,10.8,53.9,30.6,73.6c20.5,20.4,47.5,30.6,74.5,30.6c2.5,0,5-0.1,7.5-0.3
						c-1-9.3-2.9-18.4-5.8-27C363.4,223.6,342.7,216,327.1,200.5z"/>
				</g>
				<g>
					<path class="st4" d="M300,228.2c-26.4-26.3-45.6-57.7-56.5-92.1c-9.2,1.3-18,3.6-26.5,6.7c12.1,39,33.8,74.9,63.7,104.7
						c29.3,29.2,64.1,49.8,101.1,62c3.2-8.4,5.7-17.2,7.1-26.4C356.4,272.2,325.8,253.9,300,228.2z"/>
				</g>
				<g>
					<path class="st5" d="M362,344l-180-181.3c-7.1,5.7-13.7,12.1-19.5,19.1l180.2,181.5C349.9,357.6,356.3,351.1,362,344z"/>
				</g>
				<g>
					<path class="st6" d="M141.5,218.4c-3.2,8.5-5.5,17.3-6.8,26.5c33.4,10.9,64.8,29.4,91.2,55.7c25.8,25.7,44.7,56.4,55.8,89.8
						c9.2-1.4,18-3.8,26.4-7.1c-12.3-38.1-33.6-73-62.9-102.1C215.1,251.4,179.5,230.5,141.5,218.4z"/>
				</g>
				<g>
					<path class="st7" d="M218.1,309c-22.8-22.7-53.7-32.8-83.7-30.2c1.1,9.3,3.2,18.3,6.2,26.9c21-0.8,42.3,6.7,58.3,22.6
						c14.6,14.5,22.6,33.8,22.5,54.2c0,0.9,0,1.9-0.1,2.8c8.6,2.9,17.6,4.9,27,5.9c0.2-2.8,0.4-5.7,0.4-8.6
						C248.7,354.9,237.9,328.7,218.1,309z"/>
				</g>
				<g>
					<path class="st8" d="M191,336.8c-5-5-11.6-7.8-18.7-7.8c0,0-0.1,0-0.1,0c-6.3,0-12.2,2.2-17,6.2c9.9,14.7,22.8,27.2,37.8,36.7
						c3.7-4.6,5.7-10.3,5.7-16.3C198.7,348.5,196,341.8,191,336.8z"/>
				</g>
			</g>
		</g>
	</g>
</g>
</svg>
