<?xml version="1.0" encoding="utf-8"?>
<!-- Generator: Adobe Illustrator 25.4.1, SVG Export Plug-In . SVG Version: 6.00 Build 0)  -->
<svg version="1.1" xmlns="http://www.w3.org/2000/svg" xmlns:xlink="http://www.w3.org/1999/xlink" x="0px" y="0px"
	 viewBox="0 0 1953.5 1080" style="enable-background:new 0 0 1953.5 1080;" xml:space="preserve">
<style type="text/css">
	.st0{display:none;}
	.st1{display:inline;fill:#FFFFFF;}
	.st2{fill:#FF4600;}
	.st3{fill:#00005F;}
	.st4{fill:#CD3C1B;}
	.st5{fill:#A53232;}
	.st6{fill:#7D2D46;}
	.st7{fill:#64286E;}
	.st8{fill:#411489;}
	.st9{fill:#171775;}
</style>
<g id="Background" class="st0">
	<rect x="-11.7" y="-10.5" class="st1" width="1977" height="1101"/>
</g>
<g id="Contenu">
	<g>
		<g>
			<g>
				<g>
					<g>
						<path class="st2" d="M1004.5,676.6c-5.8,0-10.9-1.3-15.2-4c-4.3-2.7-7.6-6.4-9.9-11.1c-2.3-4.8-3.5-10.2-3.5-16.3
							c0-6.2,1.2-11.6,3.5-16.3c2.3-4.7,5.7-8.4,10-11c4.3-2.6,9.4-3.9,15.1-3.9c5.9,0,11,1.3,15.3,4c4.3,2.6,7.6,6.3,9.9,11.1
							c2.3,4.7,3.5,10.2,3.5,16.3c0,6.2-1.2,11.7-3.5,16.4c-2.3,4.7-5.7,8.4-10,11.1C1015.3,675.3,1010.3,676.6,1004.5,676.6z
							 M1004.5,667.3c4,0,7.4-0.9,10.1-2.8c2.7-1.8,4.8-4.4,6.1-7.8c1.4-3.3,2-7.2,2-11.6c0-6.8-1.6-12.2-4.7-16.1
							c-3.1-3.9-7.6-5.9-13.6-5.9c-4,0-7.4,0.9-10.1,2.8c-2.7,1.8-4.7,4.4-6.1,7.7c-1.3,3.3-2,7.2-2,11.6c0,4.5,0.7,8.4,2.1,11.7
							c1.4,3.3,3.4,5.9,6.2,7.7C997.2,666.4,1000.6,667.3,1004.5,667.3z"/>
						<path class="st2" d="M1074.8,676.6c-5.5,0-10.3-1.4-14.4-4.1s-7.3-6.5-9.6-11.3c-2.3-4.8-3.4-10.1-3.4-16.1
							c0-6.1,1-11.6,3.1-16.3c2.1-4.7,5-8.4,9-11.1c3.9-2.6,8.6-4,14.1-4c5.4,0,10.2,1.4,14.4,4.1c4.2,2.7,7.5,6.5,9.9,11.2
							c2.3,4.8,3.5,10.1,3.5,16c0,5.9-1.1,11.3-3.2,16.1c-2.1,4.8-5.2,8.5-9.2,11.3S1080.2,676.6,1074.8,676.6z M1047.5,701.4v-56.2
							h8.7v14.1h1.1v42.1H1047.5z M1073.9,667.6c3.8,0,7-1,9.5-2.9c2.6-1.9,4.5-4.6,5.8-8c1.3-3.4,1.9-7.2,1.9-11.6
							c0-4.3-0.6-8.1-1.9-11.5c-1.3-3.4-3.2-6-5.8-8c-2.6-1.9-5.9-2.9-9.7-2.9c-3.8,0-6.9,0.9-9.5,2.8c-2.5,1.9-4.4,4.5-5.7,7.8
							c-1.2,3.3-1.9,7.2-1.9,11.7c0,4.4,0.6,8.3,1.9,11.7c1.2,3.4,3.2,6,5.8,7.9C1066.7,666.7,1070,667.6,1073.9,667.6z"/>
						<path class="st2" d="M1141.5,676.6c-5.8,0-10.9-1.3-15.3-3.9c-4.4-2.6-7.8-6.2-10.2-10.9c-2.4-4.7-3.6-10.1-3.6-16.2
							c0-6.4,1.2-12,3.5-16.8s5.7-8.5,10-11.1c4.3-2.6,9.3-3.9,15.1-3.9c5.9,0,11,1.4,15.2,4.1c4.2,2.8,7.4,6.7,9.5,11.8
							c2.1,5.1,3,11.2,2.7,18.2h-9.9v-3.5c-0.1-4.9-0.8-8.9-2.1-12.1c-1.3-3.2-3.2-5.6-5.7-7.2c-2.5-1.6-5.7-2.4-9.4-2.4
							c-4,0-7.4,0.9-10.2,2.6c-2.8,1.7-4.9,4.3-6.3,7.6c-1.4,3.4-2.1,7.5-2.1,12.3c0,4.7,0.7,8.6,2.1,11.9c1.4,3.3,3.5,5.8,6.2,7.5
							c2.7,1.7,6,2.6,9.9,2.6c2.8,0,5.2-0.3,7.3-0.9c2.1-0.6,4.1-1.6,5.7-3c1.7-1.4,3.1-3.3,4.2-5.6h9.4c-1,4-2.8,7.4-5.3,10.2
							c-2.5,2.8-5.6,5-9.2,6.4C1149.6,675.9,1145.7,676.6,1141.5,676.6z M1119.5,648v-7.9h43.9v7.9H1119.5z"/>
						<path class="st2" d="M1182.9,674.9l0.1-31.3h9.8v16.7l0.1,2l-0.1,12.7H1182.9z M1225.3,645.2c0-4.3-0.5-8-1.4-11.2
							c-0.9-3.2-2.5-5.7-4.9-7.7c-2.3-2-5.5-3-9.5-3c-3.4,0-6.3,0.8-8.8,2.3c-2.5,1.5-4.4,3.8-5.8,6.8c-1.4,3-2.1,6.8-2.1,11.3h-9.8
							c0-6.9,1.3-12.5,3.8-17c2.5-4.5,5.8-7.7,9.9-9.8c4.1-2.1,8.6-3,13.4-2.9c4.8,0.1,9.1,1.3,12.9,3.5c3.8,2.2,6.8,5.4,9,9.6
							c2.2,4.2,3.2,9.2,3.2,15v32.9h-9.9V645.2z"/>
						<path class="st2" d="M1298.3,676.5c-4.8,0-9.1-0.7-12.9-2.1c-3.9-1.4-6.9-3.5-9.2-6.3c-2.3-2.8-3.5-6.1-3.6-10h10
							c0.1,1.9,0.9,3.7,2.4,5.1c1.5,1.5,3.5,2.6,5.9,3.4c2.5,0.8,5.1,1.2,8,1.2c2.7,0,5-0.4,7-1.2c2-0.8,3.5-1.9,4.5-3.3
							c1-1.4,1.6-3.1,1.6-5c0-1.7-0.4-3.1-1.2-4.1c-0.8-1-2.3-2-4.6-2.8c-2.3-0.9-5.9-2-11-3.4c-5.4-1.4-9.5-2.8-12.5-4.3
							s-5.1-3.2-6.4-5.2c-1.3-2-1.9-4.4-1.9-7.3c0-3.4,1-6.5,2.9-9.1c1.9-2.6,4.6-4.7,8-6.1c3.4-1.4,7.4-2.2,11.9-2.2
							c4.6,0,8.7,0.7,12.3,2.1c3.6,1.4,6.5,3.5,8.7,6.2s3.4,5.9,3.6,9.7h-10c-0.1-2-0.9-3.6-2.1-5c-1.3-1.4-3-2.4-5.1-3.1
							c-2.1-0.7-4.6-1.1-7.4-1.2c-2.5-0.1-4.8,0.2-6.7,0.9c-2,0.7-3.5,1.6-4.6,2.9c-1.1,1.3-1.7,2.7-1.7,4.4c0,1.5,0.5,2.8,1.4,3.7
							c0.9,1,2.5,1.9,4.9,2.8c2.3,0.9,5.9,2,10.7,3.2c5.3,1.4,9.5,2.8,12.4,4.3c3,1.5,5.1,3.4,6.4,5.4c1.3,2.1,2,4.7,2,7.8
							c0,3.8-0.9,7.1-2.8,9.8c-1.9,2.8-4.6,4.9-8.2,6.4S1303.2,676.5,1298.3,676.5z"/>
						<path class="st2" d="M1361.5,676.6c-5.9,0-10.9-1.3-15.2-4c-4.3-2.7-7.5-6.4-9.7-11.1c-2.2-4.7-3.4-10.2-3.4-16.3
							c0-6.2,1.2-11.7,3.5-16.4c2.3-4.7,5.5-8.4,9.8-11c4.3-2.6,9.3-3.9,15.2-3.9c4.1,0,7.9,0.7,11.4,2.1c3.4,1.4,6.4,3.4,8.8,6
							c2.4,2.6,4.1,5.7,5.1,9.2l-9.7,2.9c-1.3-3.4-3.3-6.1-6.1-8c-2.8-1.9-6-2.9-9.6-2.9c-5.9,0-10.3,2-13.3,6
							c-3,4-4.5,9.4-4.6,16.1c0,4.5,0.7,8.4,2.1,11.7c1.4,3.3,3.4,5.9,6.1,7.7c2.7,1.8,5.9,2.7,9.8,2.7c3.8,0,7-0.9,9.6-2.6
							c2.6-1.8,4.6-4.3,5.9-7.8l9.9,2.6c-2.1,5.5-5.3,9.8-9.6,12.7C1372.9,675.1,1367.7,676.6,1361.5,676.6z"/>
						<path class="st2" d="M1401.5,605v-10.1h9.8V605H1401.5z M1401.5,674.9v-59.4h9.8v59.4H1401.5z"/>
						<path class="st2" d="M1455.8,676.6c-5.8,0-10.9-1.3-15.3-3.9c-4.4-2.6-7.8-6.2-10.2-10.9c-2.4-4.7-3.6-10.1-3.6-16.2
							c0-6.4,1.2-12,3.5-16.8s5.7-8.5,10-11.1c4.3-2.6,9.3-3.9,15.1-3.9c5.9,0,11,1.4,15.2,4.1c4.2,2.8,7.4,6.7,9.5,11.8
							c2.1,5.1,3,11.2,2.7,18.2h-9.9v-3.5c-0.1-4.9-0.8-8.9-2.1-12.1c-1.3-3.2-3.2-5.6-5.7-7.2c-2.5-1.6-5.7-2.4-9.4-2.4
							c-4,0-7.4,0.9-10.2,2.6c-2.8,1.7-4.9,4.3-6.3,7.6c-1.4,3.4-2.1,7.5-2.1,12.3c0,4.7,0.7,8.6,2.1,11.9c1.4,3.3,3.5,5.8,6.2,7.5
							c2.7,1.7,6,2.6,9.9,2.6c2.8,0,5.2-0.3,7.3-0.9c2.1-0.6,4.1-1.6,5.7-3c1.7-1.4,3.1-3.3,4.2-5.6h9.4c-1,4-2.8,7.4-5.3,10.2
							c-2.5,2.8-5.6,5-9.2,6.4C1463.9,675.9,1460,676.6,1455.8,676.6z M1433.8,648v-7.9h43.9v7.9H1433.8z"/>
						<path class="st2" d="M1497.1,674.9l0.1-31.3h9.8v16.7l0.1,2l-0.1,12.7H1497.1z M1539.5,645.2c0-4.3-0.5-8-1.4-11.2
							c-0.9-3.2-2.5-5.7-4.9-7.7c-2.3-2-5.5-3-9.5-3c-3.4,0-6.3,0.8-8.8,2.3c-2.5,1.5-4.4,3.8-5.8,6.8c-1.4,3-2.1,6.8-2.1,11.3h-9.8
							c0-6.9,1.3-12.5,3.8-17c2.5-4.5,5.8-7.7,9.9-9.8c4.1-2.1,8.6-3,13.4-2.9c4.8,0.1,9.1,1.3,12.9,3.5c3.8,2.2,6.8,5.4,9,9.6
							c2.2,4.2,3.2,9.2,3.2,15v32.9h-9.9V645.2z"/>
						<path class="st2" d="M1591,676.6c-5.9,0-10.9-1.3-15.2-4c-4.3-2.7-7.5-6.4-9.7-11.1c-2.2-4.7-3.4-10.2-3.4-16.3
							c0-6.2,1.2-11.7,3.5-16.4c2.3-4.7,5.5-8.4,9.8-11c4.3-2.6,9.3-3.9,15.2-3.9c4.1,0,7.9,0.7,11.4,2.1c3.4,1.4,6.4,3.4,8.8,6
							c2.4,2.6,4.1,5.7,5.1,9.2l-9.7,2.9c-1.3-3.4-3.3-6.1-6.1-8c-2.8-1.9-6-2.9-9.6-2.9c-5.9,0-10.3,2-13.3,6
							c-3,4-4.5,9.4-4.6,16.1c0,4.5,0.7,8.4,2.1,11.7c1.4,3.3,3.4,5.9,6.1,7.7c2.7,1.8,5.9,2.7,9.8,2.7c3.8,0,7-0.9,9.6-2.6
							c2.6-1.8,4.6-4.3,5.9-7.8l9.9,2.6c-2.1,5.5-5.3,9.8-9.6,12.7C1602.4,675.1,1597.1,676.6,1591,676.6z"/>
						<path class="st2" d="M1655.6,676.6c-5.8,0-10.9-1.3-15.3-3.9c-4.4-2.6-7.8-6.2-10.2-10.9c-2.4-4.7-3.6-10.1-3.6-16.2
							c0-6.4,1.2-12,3.5-16.8s5.7-8.5,10-11.1c4.3-2.6,9.3-3.9,15-3.9c5.9,0,11,1.4,15.2,4.1c4.2,2.8,7.4,6.7,9.5,11.8
							c2.1,5.1,3,11.2,2.7,18.2h-9.9v-3.5c-0.1-4.9-0.8-8.9-2.1-12.1c-1.3-3.2-3.2-5.6-5.7-7.2c-2.5-1.6-5.7-2.4-9.4-2.4
							c-4,0-7.4,0.9-10.2,2.6c-2.8,1.7-4.9,4.3-6.3,7.6c-1.4,3.4-2.1,7.5-2.1,12.3c0,4.7,0.7,8.6,2.1,11.9c1.4,3.3,3.5,5.8,6.2,7.5
							c2.7,1.7,6,2.6,9.9,2.6c2.8,0,5.2-0.3,7.3-0.9c2.1-0.6,4.1-1.6,5.7-3c1.7-1.4,3.1-3.3,4.2-5.6h9.4c-1,4-2.8,7.4-5.3,10.2
							c-2.5,2.8-5.6,5-9.2,6.4C1663.7,675.9,1659.8,676.6,1655.6,676.6z M1633.7,648v-7.9h43.9v7.9H1633.7z"/>
					</g>
				</g>
			</g>
			<g>
				<polygon class="st3" points="1109.4,435.7 1021.1,435.7 1021.1,377 977.3,377 977.3,535.2 1021.1,535.2 1021.1,471.6 
					1109.4,471.6 1109.4,535.2 1153.2,535.2 1153.2,377 1109.4,377 				"/>
				<polygon class="st3" points="1447.6,498 1447.6,377 1403.8,377 1403.8,535.2 1544.3,535.2 1544.3,498 				"/>
				<path class="st3" d="M1247.5,377l-70.2,158.2h44l12.8-29.3h0l3.4-7.9h78.4l3.5,7.9h0.1l5.9,13.3l0,0l7.1,16.1h47L1306.2,377
					H1247.5z M1299.4,460.8h-45.5l22.4-51.9L1299.4,460.8z"/>
			</g>
		</g>
		<g>
			<g>
				<path class="st2" d="M689.7,391.5c10.7,10.8,24.9,16.7,40,16.8c0.1,0,0.1,0,0.2,0c13,0,25.2-4.3,35.2-12.3
					c-20.4-32.1-47.3-59.6-79-80.5C667.9,337.7,669,370.7,689.7,391.5z"/>
			</g>
			<g>
				<path class="st4" d="M675.3,407.3c-30.2-30.1-46.8-70-46.7-112.3c0-2.8,0.1-5.5,0.2-8.2c-18.7-6.7-38.4-11.4-58.8-13.8
					c-0.7,7.2-1.1,14.5-1.2,21.8c-0.2,58.4,22.6,113.4,64.3,154.8C674.8,491,730.1,513.8,789,514c0.3,0,0.5,0,0.8,0
					c5.3,0,10.6-0.2,15.8-0.6c-2-20.5-6.3-40.3-12.6-59.2C750.5,455.1,707.6,439.4,675.3,407.3z"/>
			</g>
			<g>
				<path class="st5" d="M777.7,570.3c-59.7-24.1-113.1-59.5-159-105c-45.8-45.5-81.2-98.5-105.2-157.5
					c-4.6-11.3-8.7-22.7-12.4-34.2c-20.1,2.8-39.5,7.8-58,14.7c4.4,14.1,9.4,28.1,15,41.9c27,66.5,66.9,126.1,118.4,177.4
					c51.5,51.2,111.6,90.9,178.7,118c10.9,4.4,22,8.5,33.1,12.2c7.2-18.4,12.4-37.7,15.5-57.8C795.1,577.1,786.3,573.8,777.7,570.3z
					"/>
			</g>
			<g>
				<path class="st6" d="M748.4,707.1l-376-378.7c-15.7,12.3-30,26.4-42.6,41.9l376.5,379.1C721.8,736.9,735.9,722.7,748.4,707.1z"
					/>
			</g>
			<g>
				<path class="st7" d="M504.1,576.1c-51.5-51.2-111.6-90.9-178.7-118c-12.7-5.1-25.5-9.7-38.4-13.9c-7,18.4-12.1,37.8-14.9,57.9
					c10.4,3.4,20.7,7.2,30.9,11.3c59.7,24.1,113.1,59.5,159,105C507.8,664,543.2,717,567.2,776c4,9.7,7.6,19.6,10.9,29.5
					c20.1-3,39.4-8.2,57.8-15.4c-4-12.3-8.4-24.5-13.4-36.6C595.5,687,555.7,627.3,504.1,576.1z"/>
			</g>
			<g>
				<path class="st8" d="M447.5,634.1c-41.5-41.3-96.9-64.2-155.8-64.4c-6.9,0-13.7,0.3-20.4,0.9c2.3,20.5,7,40.2,13.6,59
					c2-0.1,4-0.1,6-0.1c41.5,0,83,15.7,114.5,47c30.2,30.1,46.8,70,46.7,112.3c0,1.8-0.1,3.7-0.1,5.5c18.8,6.4,38.6,10.7,59,12.8
					c0.5-6,0.8-12,0.8-18.1C512,730.5,489.2,675.5,447.5,634.1z"/>
			</g>
			<g>
				<path class="st9" d="M391,692.2c-20.8-21-54.2-22.2-76.5-3.6c21.1,31.6,48.6,58.5,80.8,78.7c7.8-9.9,12.1-22.1,12.2-34.9
					C407.6,717.2,401.7,703,391,692.2z"/>
			</g>
		</g>
	</g>
</g>
</svg>
